{
	"asset":{
		"generator":"Khronos glTF Blender I/O v3.5.30",
		"version":"2.0"
	},
	"extensionsUsed":[
		"KHR_lights_punctual",
		"KHR_materials_emissive_strength"
	],
	"extensionsRequired":[
		"KHR_lights_punctual"
	],
	"extensions":{
		"KHR_lights_punctual":{
			"lights":[
				{
					"color":[
						1,
						1,
						1
					],
					"intensity":79.57747154594767,
					"type":"point",
					"name":"Light"
				},
				{
					"color":[
						1,
						1,
						1
					],
					"intensity":79.57747154594767,
					"type":"point",
					"name":"Light.001"
				}
			]
		}
	},
	"scene":0,
	"scenes":[
		{
			"extras":{
				"level_id":0
			},
			"name":"Scene",
			"nodes":[
				0,
				1,
				2,
				3,
				4,
				5,
				6,
				7,
				8,
				9,
				10,
				11,
				12,
				13,
				14,
				15,
				16,
				17,
				18,
				19
			]
		}
	],
	"nodes":[
		{
			"extras":{
				"box_collider":true
			},
			"mesh":0,
			"name":"Floor.001",
			"translation":[
				-1,
				0,
				0
			]
		},
		{
			"extensions":{
				"KHR_lights_punctual":{
					"light":0
				}
			},
			"name":"Light",
			"rotation":[
				-0.28416627645492554,
				0.7269423007965088,
				0.34203392267227173,
				0.5232754945755005
			],
			"translation":[
				0.07624530792236328,
				6.903861999511719,
				3.9945459365844727
			]
		},
		{
			"extras":{
				"box_collider":true
			},
			"mesh":1,
			"name":"WallS",
			"translation":[
				-6,
				1,
				10
			]
		},
		{
			"extras":{
				"box_collider":true
			},
			"mesh":2,
			"name":"WallNLeft",
			"translation":[
				-6,
				1,
				-7
			]
		},
		{
			"extras":{
				"box_collider":true
			},
			"mesh":3,
			"name":"WallNRight",
			"translation":[
				3,
				1,
				-7
			]
		},
		{
			"extras":{
				"box_collider":true
			},
			"mesh":4,
			"name":"WallW",
			"translation":[
				-6,
				1,
				-6
			]
		},
		{
			"extras":{
				"box_collider":true
			},
			"mesh":5,
			"name":"WallE",
			"translation":[
				6,
				1,
				-6
			]
		},
		{
			"mesh":6,
			"name":"Laser",
			"rotation":[
				0,
				0,
				-0.7071068286895752,
				0.7071068286895752
			],
			"scale":[
				0.050000011920928955,
				5.5567307472229,
				0.050000011920928955
			],
			"translation":[
				0,
				2,
				-3
			]
		},
		{
			"extras":{
				"box_collider":true
			},
			"mesh":7,
			"name":"WallNCenter",
			"translation":[
				-1,
				6,
				-7
			]
		},
		{
			"extras":{
				"animation":{
					"translation":[
						0.0,
						4.0,
						0.0
					],
					"duration":1.0
				},
				"rigid_body":"kinematic",
				"box_collider":true,
				"door":true
			},
			"mesh":8,
			"name":"Door",
			"translation":[
				-4,
				-2,
				-2
			]
		},
		{
			"extras":{
				"box_collider":true,
				"flag_trigger":0
			},
			"mesh":9,
			"name":"Sensor",
			"translation":[
				0,
				2,
				-3
			]
		},
		{
			"extras":{
				"box_collider":true
			},
			"mesh":10,
			"name":"Floor",
			"translation":[
				6,
				0,
				-8
			]
		},
		{
			"extras":{
				"box_collider":true
			},
			"mesh":11,
			"name":"Step1",
			"translation":[
				-6,
				1,
				-14
			]
		},
		{
			"extras":{
				"box_collider":true
			},
			"mesh":12,
			"name":"Step2",
			"translation":[
				-6,
				4,
				-17
			]
		},
		{
			"extras":{
				"box_collider":true
			},
			"mesh":13,
			"name":"WallW.001",
			"translation":[
				-6,
				1,
				-8
			]
		},
		{
			"extras":{
				"box_collider":true
			},
			"mesh":14,
			"name":"WallE.001",
			"translation":[
				6,
				1,
				-8
			]
		},
		{
			"extras":{
				"box_collider":true,
				"pickupable":true,
				"rigid_body":"dynamic"
			},
			"mesh":15,
			"name":"CompanionCube",
			"translation":[
				-3,
				1,
				-10
			]
		},
		{
			"extras":{
				"flag_trigger":0
			},
			"mesh":16,
			"name":"UnitCube.001",
			"scale":[
				1.25,
				1,
				1.25
			],
			"translation":[
				4,
				1,
				-10
			]
		},
		{
			"mesh":17,
			"name":"UnitCube.002",
			"scale":[
				1.25,
				1,
				1.25
			],
			"translation":[
				4,
				1,
				-10
			]
		},
		{
			"extensions":{
				"KHR_lights_punctual":{
					"light":1
				}
			},
			"name":"Light.001",
			"rotation":[
				-0.28416627645492554,
				0.7269423007965088,
				0.34203392267227173,
				0.5232754945755005
			],
			"translation":[
				0.07624530792236328,
				11.903861999511719,
				-15.005454063415527
			]
		}
	],
	"materials":[
		{
			"doubleSided":true,
			"name":"Material",
			"pbrMetallicRoughness":{
				"baseColorFactor":[
					0.800000011920929,
					0.800000011920929,
					0.800000011920929,
					1
				],
				"metallicFactor":0,
				"roughnessFactor":0.5
			}
		},
		{
			"doubleSided":true,
			"emissiveFactor":[
				1,
				0,
				0
			],
			"extensions":{
				"KHR_materials_emissive_strength":{
					"emissiveStrength":5
				}
			},
			"name":"Material.001",
			"pbrMetallicRoughness":{
				"baseColorFactor":[
					0,
					0,
					0,
					1
				],
				"roughnessFactor":0
			}
		},
		{
			"doubleSided":true,
			"name":"Material.002",
			"pbrMetallicRoughness":{
				"baseColorFactor":[
					0.9285712242126465,
					0.9285712242126465,
					0.9285712242126465,
					1
				],
				"metallicFactor":0.5590550899505615
			}
		}
	],
	"meshes":[
		{
			"name":"Cube",
			"primitives":[
				{
					"attributes":{
						"POSITION":0,
						"TEXCOORD_0":1,
						"NORMAL":2
					},
					"indices":3,
					"material":0
				}
			]
		},
		{
			"name":"Cube.002",
			"primitives":[
				{
					"attributes":{
						"POSITION":4,
						"TEXCOORD_0":5,
						"NORMAL":6
					},
					"indices":7,
					"material":0
				}
			]
		},
		{
			"name":"Cube.003",
			"primitives":[
				{
					"attributes":{
						"POSITION":8,
						"TEXCOORD_0":9,
						"NORMAL":10
					},
					"indices":7,
					"material":0
				}
			]
		},
		{
			"name":"Cube.004",
			"primitives":[
				{
					"attributes":{
						"POSITION":11,
						"TEXCOORD_0":12,
						"NORMAL":13
					},
					"indices":7,
					"material":0
				}
			]
		},
		{
			"name":"Cube.005",
			"primitives":[
				{
					"attributes":{
						"POSITION":14,
						"TEXCOORD_0":15,
						"NORMAL":16
					},
					"indices":7,
					"material":0
				}
			]
		},
		{
			"name":"Cube.006",
			"primitives":[
				{
					"attributes":{
						"POSITION":17,
						"TEXCOORD_0":18,
						"NORMAL":19
					},
					"indices":7,
					"material":0
				}
			]
		},
		{
			"name":"Cylinder",
			"primitives":[
				{
					"attributes":{
						"POSITION":20,
						"TEXCOORD_0":21,
						"NORMAL":22
					},
					"indices":23,
					"material":1
				}
			]
		},
		{
			"name":"Cube.007",
			"primitives":[
				{
					"attributes":{
						"POSITION":24,
						"TEXCOORD_0":25,
						"NORMAL":26
					},
					"indices":7,
					"material":0
				}
			]
		},
		{
			"name":"Cube.008",
			"primitives":[
				{
					"attributes":{
						"POSITION":27,
						"TEXCOORD_0":28,
						"NORMAL":29
					},
					"indices":7,
					"material":2
				}
			]
		},
		{
			"name":"Cube.009",
			"primitives":[
				{
					"attributes":{
						"POSITION":30,
						"TEXCOORD_0":31,
						"NORMAL":32
					},
					"indices":7
				}
			]
		},
		{
			"name":"Cube.013",
			"primitives":[
				{
					"attributes":{
						"POSITION":33,
						"TEXCOORD_0":34,
						"NORMAL":35
					},
					"indices":7,
					"material":0
				}
			]
		},
		{
			"name":"Cube.014",
			"primitives":[
				{
					"attributes":{
						"POSITION":36,
						"TEXCOORD_0":37,
						"NORMAL":38
					},
					"indices":7,
					"material":0
				}
			]
		},
		{
			"name":"Cube.015",
			"primitives":[
				{
					"attributes":{
						"POSITION":39,
						"TEXCOORD_0":40,
						"NORMAL":41
					},
					"indices":7,
					"material":0
				}
			]
		},
		{
			"name":"Cube.016",
			"primitives":[
				{
					"attributes":{
						"POSITION":42,
						"TEXCOORD_0":43,
						"NORMAL":44
					},
					"indices":7,
					"material":0
				}
			]
		},
		{
			"name":"Cube.017",
			"primitives":[
				{
					"attributes":{
						"POSITION":45,
						"TEXCOORD_0":46,
						"NORMAL":47
					},
					"indices":7,
					"material":0
				}
			]
		},
		{
			"name":"Cube.018",
			"primitives":[
				{
					"attributes":{
						"POSITION":48,
						"TEXCOORD_0":49,
						"NORMAL":50
					},
					"indices":7
				}
			]
		},
		{
			"name":"Cube.019",
			"primitives":[
				{
					"attributes":{
						"POSITION":51,
						"TEXCOORD_0":52,
						"NORMAL":53
					},
					"indices":7
				}
			]
		},
		{
			"name":"Cube.020",
			"primitives":[
				{
					"attributes":{
						"POSITION":54,
						"TEXCOORD_0":55,
						"NORMAL":56
					},
					"indices":7
				}
			]
		}
	],
	"accessors":[
		{
			"bufferView":0,
			"componentType":5126,
			"count":24,
			"max":[
				7.5,
				0.5,
				10.5
			],
			"min":[
				-5.5,
				-0.5,
				-7.5
			],
			"type":"VEC3"
		},
		{
			"bufferView":1,
			"componentType":5126,
			"count":24,
			"type":"VEC2"
		},
		{
			"bufferView":2,
			"componentType":5126,
			"count":24,
			"type":"VEC3"
		},
		{
			"bufferView":3,
			"componentType":5123,
			"count":36,
			"type":"SCALAR"
		},
		{
			"bufferView":4,
			"componentType":5126,
			"count":24,
			"max":[
				12.5,
				5.5,
				0.5
			],
			"min":[
				-0.5,
				-0.5,
				-0.5
			],
			"type":"VEC3"
		},
		{
			"bufferView":5,
			"componentType":5126,
			"count":24,
			"type":"VEC2"
		},
		{
			"bufferView":6,
			"componentType":5126,
			"count":24,
			"type":"VEC3"
		},
		{
			"bufferView":7,
			"componentType":5123,
			"count":36,
			"type":"SCALAR"
		},
		{
			"bufferView":8,
			"componentType":5126,
			"count":24,
			"max":[
				4.5,
				5.5,
				0.5
			],
			"min":[
				-0.5,
				-0.5,
				-0.5
			],
			"type":"VEC3"
		},
		{
			"bufferView":9,
			"componentType":5126,
			"count":24,
			"type":"VEC2"
		},
		{
			"bufferView":10,
			"componentType":5126,
			"count":24,
			"type":"VEC3"
		},
		{
			"bufferView":11,
			"componentType":5126,
			"count":24,
			"max":[
				3.5,
				5.5,
				0.5
			],
			"min":[
				-1.5,
				-0.5,
				-0.5
			],
			"type":"VEC3"
		},
		{
			"bufferView":12,
			"componentType":5126,
			"count":24,
			"type":"VEC2"
		},
		{
			"bufferView":13,
			"componentType":5126,
			"count":24,
			"type":"VEC3"
		},
		{
			"bufferView":14,
			"componentType":5126,
			"count":24,
			"max":[
				0.5,
				5.5,
				15.5
			],
			"min":[
				-0.5,
				-0.5,
				-0.5
			],
			"type":"VEC3"
		},
		{
			"bufferView":15,
			"componentType":5126,
			"count":24,
			"type":"VEC2"
		},
		{
			"bufferView":16,
			"componentType":5126,
			"count":24,
			"type":"VEC3"
		},
		{
			"bufferView":17,
			"componentType":5126,
			"count":24,
			"max":[
				0.5,
				5.5,
				15.5
			],
			"min":[
				-0.5,
				-0.5,
				-0.5
			],
			"type":"VEC3"
		},
		{
			"bufferView":18,
			"componentType":5126,
			"count":24,
			"type":"VEC2"
		},
		{
			"bufferView":19,
			"componentType":5126,
			"count":24,
			"type":"VEC3"
		},
		{
			"bufferView":20,
			"componentType":5126,
			"count":768,
			"max":[
				20.9999942779541,
				1,
				1
			],
			"min":[
				-10.99999713897705,
				-1,
				-1
			],
			"type":"VEC3"
		},
		{
			"bufferView":21,
			"componentType":5126,
			"count":768,
			"type":"VEC2"
		},
		{
			"bufferView":22,
			"componentType":5126,
			"count":768,
			"type":"VEC3"
		},
		{
			"bufferView":23,
			"componentType":5123,
			"count":1488,
			"type":"SCALAR"
		},
		{
			"bufferView":24,
			"componentType":5126,
			"count":24,
			"max":[
				2.5,
				0.5,
				0.5
			],
			"min":[
				-0.5,
				-2.5,
				-0.5
			],
			"type":"VEC3"
		},
		{
			"bufferView":25,
			"componentType":5126,
			"count":24,
			"type":"VEC2"
		},
		{
			"bufferView":26,
			"componentType":5126,
			"count":24,
			"type":"VEC3"
		},
		{
			"bufferView":27,
			"componentType":5126,
			"count":24,
			"max":[
				5.5,
				1.5,
				-4.875
			],
			"min":[
				2.5,
				-1.5,
				-5.125
			],
			"type":"VEC3"
		},
		{
			"bufferView":28,
			"componentType":5126,
			"count":24,
			"type":"VEC2"
		},
		{
			"bufferView":29,
			"componentType":5126,
			"count":24,
			"type":"VEC3"
		},
		{
			"bufferView":30,
			"componentType":5126,
			"count":24,
			"max":[
				5.5,
				2.5,
				0.5
			],
			"min":[
				-5.5,
				-1.5,
				-0.5
			],
			"type":"VEC3"
		},
		{
			"bufferView":31,
			"componentType":5126,
			"count":24,
			"type":"VEC2"
		},
		{
			"bufferView":32,
			"componentType":5126,
			"count":24,
			"type":"VEC3"
		},
		{
			"bufferView":33,
			"componentType":5126,
			"count":24,
			"max":[
				0.5,
				0.5,
				0.5
			],
			"min":[
				-12.5,
				-0.5,
				-14.5
			],
			"type":"VEC3"
		},
		{
			"bufferView":34,
			"componentType":5126,
			"count":24,
			"type":"VEC2"
		},
		{
			"bufferView":35,
			"componentType":5126,
			"count":24,
			"type":"VEC3"
		},
		{
			"bufferView":36,
			"componentType":5126,
			"count":24,
			"max":[
				11.5,
				2.5,
				1.5
			],
			"min":[
				0.5,
				-0.5,
				-8.5
			],
			"type":"VEC3"
		},
		{
			"bufferView":37,
			"componentType":5126,
			"count":24,
			"type":"VEC2"
		},
		{
			"bufferView":38,
			"componentType":5126,
			"count":24,
			"type":"VEC3"
		},
		{
			"bufferView":39,
			"componentType":5126,
			"count":24,
			"max":[
				11.5,
				2.5,
				0.5
			],
			"min":[
				0.5,
				-0.5,
				-5.5
			],
			"type":"VEC3"
		},
		{
			"bufferView":40,
			"componentType":5126,
			"count":24,
			"type":"VEC2"
		},
		{
			"bufferView":41,
			"componentType":5126,
			"count":24,
			"type":"VEC3"
		},
		{
			"bufferView":42,
			"componentType":5126,
			"count":24,
			"max":[
				0.5,
				8.5,
				0.5
			],
			"min":[
				-0.5,
				-0.5,
				-14.5
			],
			"type":"VEC3"
		},
		{
			"bufferView":43,
			"componentType":5126,
			"count":24,
			"type":"VEC2"
		},
		{
			"bufferView":44,
			"componentType":5126,
			"count":24,
			"type":"VEC3"
		},
		{
			"bufferView":45,
			"componentType":5126,
			"count":24,
			"max":[
				0.5,
				8.5,
				0.5
			],
			"min":[
				-0.5,
				-0.5,
				-14.5
			],
			"type":"VEC3"
		},
		{
			"bufferView":46,
			"componentType":5126,
			"count":24,
			"type":"VEC2"
		},
		{
			"bufferView":47,
			"componentType":5126,
			"count":24,
			"type":"VEC3"
		},
		{
			"bufferView":48,
			"componentType":5126,
			"count":24,
			"max":[
				0.5,
				0.5,
				0.5
			],
			"min":[
				-0.5,
				-0.5,
				-0.5
			],
			"type":"VEC3"
		},
		{
			"bufferView":49,
			"componentType":5126,
			"count":24,
			"type":"VEC2"
		},
		{
			"bufferView":50,
			"componentType":5126,
			"count":24,
			"type":"VEC3"
		},
		{
			"bufferView":51,
			"componentType":5126,
			"count":24,
			"max":[
				0.5,
				0.6000000238418579,
				0.5
			],
			"min":[
				-0.5,
				-0.5,
				-0.5
			],
			"type":"VEC3"
		},
		{
			"bufferView":52,
			"componentType":5126,
			"count":24,
			"type":"VEC2"
		},
		{
			"bufferView":53,
			"componentType":5126,
			"count":24,
			"type":"VEC3"
		},
		{
			"bufferView":54,
			"componentType":5126,
			"count":24,
			"max":[
				0.5,
				-0.3999999761581421,
				0.5
			],
			"min":[
				-0.5,
				-0.5,
				-0.5
			],
			"type":"VEC3"
		},
		{
			"bufferView":55,
			"componentType":5126,
			"count":24,
			"type":"VEC2"
		},
		{
			"bufferView":56,
			"componentType":5126,
			"count":24,
			"type":"VEC3"
		}
	],
	"bufferViews":[
		{
			"buffer":0,
			"byteLength":288,
			"byteOffset":0,
			"target":34962
		},
		{
			"buffer":0,
			"byteLength":192,
			"byteOffset":288,
			"target":34962
		},
		{
			"buffer":0,
			"byteLength":288,
			"byteOffset":480,
			"target":34962
		},
		{
			"buffer":0,
			"byteLength":72,
			"byteOffset":768,
			"target":34963
		},
		{
			"buffer":0,
			"byteLength":288,
			"byteOffset":840,
			"target":34962
		},
		{
			"buffer":0,
			"byteLength":192,
			"byteOffset":1128,
			"target":34962
		},
		{
			"buffer":0,
			"byteLength":288,
			"byteOffset":1320,
			"target":34962
		},
		{
			"buffer":0,
			"byteLength":72,
			"byteOffset":1608,
			"target":34963
		},
		{
			"buffer":0,
			"byteLength":288,
			"byteOffset":1680,
			"target":34962
		},
		{
			"buffer":0,
			"byteLength":192,
			"byteOffset":1968,
			"target":34962
		},
		{
			"buffer":0,
			"byteLength":288,
			"byteOffset":2160,
			"target":34962
		},
		{
			"buffer":0,
			"byteLength":288,
			"byteOffset":2448,
			"target":34962
		},
		{
			"buffer":0,
			"byteLength":192,
			"byteOffset":2736,
			"target":34962
		},
		{
			"buffer":0,
			"byteLength":288,
			"byteOffset":2928,
			"target":34962
		},
		{
			"buffer":0,
			"byteLength":288,
			"byteOffset":3216,
			"target":34962
		},
		{
			"buffer":0,
			"byteLength":192,
			"byteOffset":3504,
			"target":34962
		},
		{
			"buffer":0,
			"byteLength":288,
			"byteOffset":3696,
			"target":34962
		},
		{
			"buffer":0,
			"byteLength":288,
			"byteOffset":3984,
			"target":34962
		},
		{
			"buffer":0,
			"byteLength":192,
			"byteOffset":4272,
			"target":34962
		},
		{
			"buffer":0,
			"byteLength":288,
			"byteOffset":4464,
			"target":34962
		},
		{
			"buffer":0,
			"byteLength":9216,
			"byteOffset":4752,
			"target":34962
		},
		{
			"buffer":0,
			"byteLength":6144,
			"byteOffset":13968,
			"target":34962
		},
		{
			"buffer":0,
			"byteLength":9216,
			"byteOffset":20112,
			"target":34962
		},
		{
			"buffer":0,
			"byteLength":2976,
			"byteOffset":29328,
			"target":34963
		},
		{
			"buffer":0,
			"byteLength":288,
			"byteOffset":32304,
			"target":34962
		},
		{
			"buffer":0,
			"byteLength":192,
			"byteOffset":32592,
			"target":34962
		},
		{
			"buffer":0,
			"byteLength":288,
			"byteOffset":32784,
			"target":34962
		},
		{
			"buffer":0,
			"byteLength":288,
			"byteOffset":33072,
			"target":34962
		},
		{
			"buffer":0,
			"byteLength":192,
			"byteOffset":33360,
			"target":34962
		},
		{
			"buffer":0,
			"byteLength":288,
			"byteOffset":33552,
			"target":34962
		},
		{
			"buffer":0,
			"byteLength":288,
			"byteOffset":33840,
			"target":34962
		},
		{
			"buffer":0,
			"byteLength":192,
			"byteOffset":34128,
			"target":34962
		},
		{
			"buffer":0,
			"byteLength":288,
			"byteOffset":34320,
			"target":34962
		},
		{
			"buffer":0,
			"byteLength":288,
			"byteOffset":34608,
			"target":34962
		},
		{
			"buffer":0,
			"byteLength":192,
			"byteOffset":34896,
			"target":34962
		},
		{
			"buffer":0,
			"byteLength":288,
			"byteOffset":35088,
			"target":34962
		},
		{
			"buffer":0,
			"byteLength":288,
			"byteOffset":35376,
			"target":34962
		},
		{
			"buffer":0,
			"byteLength":192,
			"byteOffset":35664,
			"target":34962
		},
		{
			"buffer":0,
			"byteLength":288,
			"byteOffset":35856,
			"target":34962
		},
		{
			"buffer":0,
			"byteLength":288,
			"byteOffset":36144,
			"target":34962
		},
		{
			"buffer":0,
			"byteLength":192,
			"byteOffset":36432,
			"target":34962
		},
		{
			"buffer":0,
			"byteLength":288,
			"byteOffset":36624,
			"target":34962
		},
		{
			"buffer":0,
			"byteLength":288,
			"byteOffset":36912,
			"target":34962
		},
		{
			"buffer":0,
			"byteLength":192,
			"byteOffset":37200,
			"target":34962
		},
		{
			"buffer":0,
			"byteLength":288,
			"byteOffset":37392,
			"target":34962
		},
		{
			"buffer":0,
			"byteLength":288,
			"byteOffset":37680,
			"target":34962
		},
		{
			"buffer":0,
			"byteLength":192,
			"byteOffset":37968,
			"target":34962
		},
		{
			"buffer":0,
			"byteLength":288,
			"byteOffset":38160,
			"target":34962
		},
		{
			"buffer":0,
			"byteLength":288,
			"byteOffset":38448,
			"target":34962
		},
		{
			"buffer":0,
			"byteLength":192,
			"byteOffset":38736,
			"target":34962
		},
		{
			"buffer":0,
			"byteLength":288,
			"byteOffset":38928,
			"target":34962
		},
		{
			"buffer":0,
			"byteLength":288,
			"byteOffset":39216,
			"target":34962
		},
		{
			"buffer":0,
			"byteLength":192,
			"byteOffset":39504,
			"target":34962
		},
		{
			"buffer":0,
			"byteLength":288,
			"byteOffset":39696,
			"target":34962
		},
		{
			"buffer":0,
			"byteLength":288,
			"byteOffset":39984,
			"target":34962
		},
		{
			"buffer":0,
			"byteLength":192,
			"byteOffset":40272,
			"target":34962
		},
		{
			"buffer":0,
			"byteLength":288,
			"byteOffset":40464,
			"target":34962
		}
	],
	"buffers":[
		{
			"byteLength":40752,
			"uri":"levels.bin"
		}
	]
}
